<svg xmlns="http://www.w3.org/2000/svg" xmlns:xlink="http://www.w3.org/1999/xlink" width="500" zoomAndPan="magnify" viewBox="0 0 375 374.999991" height="500" preserveAspectRatio="xMidYMid meet" version="1.0"><defs><g/><clipPath id="2079cc2574"><path d="M 70 187 L 137 187 L 137 254 L 70 254 Z M 70 187 " clip-rule="nonzero"/></clipPath><clipPath id="0bb22fad5e"><path d="M 124.953125 187.683594 L 136.554688 199.285156 L 81.867188 253.976562 L 70.265625 242.375 Z M 124.953125 187.683594 " clip-rule="nonzero"/></clipPath><clipPath id="d4605100ac"><path d="M 124.953125 187.683594 L 136.15625 198.886719 L 81.863281 253.179688 L 70.664062 241.976562 Z M 124.953125 187.683594 " clip-rule="nonzero"/></clipPath><clipPath id="3d2028b3a4"><path d="M 70 187 L 137 187 L 137 253 L 70 253 Z M 70 187 " clip-rule="nonzero"/></clipPath><clipPath id="b40e9a855b"><path d="M 124.953125 187.683594 L 136.09375 198.820312 L 82 252.914062 L 70.859375 241.777344 Z M 124.953125 187.683594 " clip-rule="nonzero"/></clipPath><clipPath id="08ec46b3e2"><path d="M 124.9375 187.703125 L 137.292969 200.058594 L 82.839844 254.511719 L 70.484375 242.15625 Z M 124.9375 187.703125 " clip-rule="nonzero"/></clipPath><clipPath id="361e1f3fef"><path d="M 124.9375 187.703125 L 136.074219 198.839844 L 82.015625 252.898438 L 70.878906 241.761719 Z M 124.9375 187.703125 " clip-rule="nonzero"/></clipPath><clipPath id="75f2a81123"><path d="M 56 184 L 121 184 L 121 249 L 56 249 Z M 56 184 " clip-rule="nonzero"/></clipPath><clipPath id="98b272d7c4"><path d="M 108.824219 184.921875 L 120.425781 196.523438 L 67.804688 249.140625 L 56.207031 237.539062 Z M 108.824219 184.921875 " clip-rule="nonzero"/></clipPath><clipPath id="32d589bdf8"><path d="M 108.824219 184.921875 L 120.027344 196.125 L 67.511719 248.640625 L 56.308594 237.4375 Z M 108.824219 184.921875 " clip-rule="nonzero"/></clipPath><clipPath id="eb63908405"><path d="M 56 184 L 120 184 L 120 249 L 56 249 Z M 56 184 " clip-rule="nonzero"/></clipPath><clipPath id="321ed26d7b"><path d="M 108.824219 184.921875 L 119.960938 196.058594 L 67.457031 248.558594 L 56.320312 237.421875 Z M 108.824219 184.921875 " clip-rule="nonzero"/></clipPath><clipPath id="06a1ac2b21"><path d="M 108.808594 184.9375 L 121.164062 197.292969 L 67.761719 250.695312 L 55.40625 238.339844 Z M 108.808594 184.9375 " clip-rule="nonzero"/></clipPath><clipPath id="1d2f0ebe35"><path d="M 108.808594 184.9375 L 119.945312 196.074219 L 67.472656 248.546875 L 56.335938 237.410156 Z M 108.808594 184.9375 " clip-rule="nonzero"/></clipPath><clipPath id="084567644a"><path d="M 54 168 L 119 168 L 119 232 L 54 232 Z M 54 168 " clip-rule="nonzero"/></clipPath><clipPath id="446c99b657"><path d="M 106.847656 168.230469 L 118.449219 179.832031 L 65.832031 232.449219 L 54.230469 220.847656 Z M 106.847656 168.230469 " clip-rule="nonzero"/></clipPath><clipPath id="9f3455ace9"><path d="M 106.847656 168.230469 L 118.050781 179.433594 L 65.734375 231.75 L 54.53125 220.546875 Z M 106.847656 168.230469 " clip-rule="nonzero"/></clipPath><clipPath id="4d779a77f2"><path d="M 54 168 L 118 168 L 118 232 L 54 232 Z M 54 168 " clip-rule="nonzero"/></clipPath><clipPath id="be23dcc902"><path d="M 106.847656 168.230469 L 117.988281 179.367188 L 65.484375 231.871094 L 54.347656 220.730469 Z M 106.847656 168.230469 " clip-rule="nonzero"/></clipPath><clipPath id="d037928e77"><path d="M 106.835938 168.242188 L 119.191406 180.601562 L 65.585938 234.207031 L 53.230469 221.851562 Z M 106.835938 168.242188 " clip-rule="nonzero"/></clipPath><clipPath id="6745c02c8d"><path d="M 106.835938 168.242188 L 117.972656 179.378906 L 65.496094 231.855469 L 54.359375 220.71875 Z M 106.835938 168.242188 " clip-rule="nonzero"/></clipPath><clipPath id="46d7a06c81"><path d="M 54 149 L 119 149 L 119 214 L 54 214 Z M 54 149 " clip-rule="nonzero"/></clipPath><clipPath id="885bcdafb2"><path d="M 106.847656 149.75 L 118.449219 161.351562 L 65.832031 213.96875 L 54.230469 202.367188 Z M 106.847656 149.75 " clip-rule="nonzero"/></clipPath><clipPath id="10f947b5ad"><path d="M 106.847656 149.75 L 118.050781 160.953125 L 65.734375 213.269531 L 54.53125 202.066406 Z M 106.847656 149.75 " clip-rule="nonzero"/></clipPath><clipPath id="8d75980800"><path d="M 54 149 L 118 149 L 118 214 L 54 214 Z M 54 149 " clip-rule="nonzero"/></clipPath><clipPath id="37126ea324"><path d="M 106.847656 149.75 L 117.988281 160.886719 L 65.484375 213.390625 L 54.347656 202.253906 Z M 106.847656 149.75 " clip-rule="nonzero"/></clipPath><clipPath id="28d268d668"><path d="M 106.835938 149.761719 L 119.191406 162.121094 L 65.585938 215.726562 L 53.230469 203.371094 Z M 106.835938 149.761719 " clip-rule="nonzero"/></clipPath><clipPath id="f8bbd8e504"><path d="M 106.835938 149.761719 L 117.972656 160.898438 L 65.496094 213.375 L 54.359375 202.238281 Z M 106.835938 149.761719 " clip-rule="nonzero"/></clipPath><clipPath id="41387cb6b1"><path d="M 37 147 L 101 147 L 101 211 L 37 211 Z M 37 147 " clip-rule="nonzero"/></clipPath><clipPath id="13384c8100"><path d="M 89.421875 147.777344 L 101.023438 159.378906 L 48.820312 211.582031 L 37.21875 199.980469 Z M 89.421875 147.777344 " clip-rule="nonzero"/></clipPath><clipPath id="6928761781"><path d="M 89.421875 147.777344 L 100.625 158.980469 L 48.699219 210.902344 L 37.496094 199.699219 Z M 89.421875 147.777344 " clip-rule="nonzero"/></clipPath><clipPath id="0c8ead9f2c"><path d="M 37 147 L 101 147 L 101 211 L 37 211 Z M 37 147 " clip-rule="nonzero"/></clipPath><clipPath id="a392530303"><path d="M 89.421875 147.777344 L 100.558594 158.914062 L 48.585938 210.886719 L 37.449219 199.75 Z M 89.421875 147.777344 " clip-rule="nonzero"/></clipPath><clipPath id="00cf8ff7d9"><path d="M 89.40625 147.792969 L 101.761719 160.148438 L 49.542969 212.371094 L 37.1875 200.011719 Z M 89.40625 147.792969 " clip-rule="nonzero"/></clipPath><clipPath id="f35f6e15db"><path d="M 89.40625 147.792969 L 100.542969 158.929688 L 48.601562 210.871094 L 37.464844 199.734375 Z M 89.40625 147.792969 " clip-rule="nonzero"/></clipPath></defs><g fill="#000000" fill-opacity="1"><g transform="translate(136.15898, 219.251134)"><g><path d="M 44.09375 5.984375 C 32.59375 6.535156 24.332031 3.679688 19.3125 -2.578125 C 13.25 2.097656 8.804688 4.4375 5.984375 4.4375 C 4.472656 4.4375 3.351562 3.695312 2.625 2.21875 C 1.90625 0.738281 1.546875 -0.859375 1.546875 -2.578125 C 1.546875 -5.878906 2.820312 -10.628906 5.375 -16.828125 C 8.394531 -23.847656 11.179688 -27.359375 13.734375 -27.359375 C 15.035156 -27.359375 16.03125 -25.296875 16.71875 -21.171875 C 17.894531 -14.972656 18.960938 -10.703125 19.921875 -8.359375 C 22.191406 -10.773438 25.03125 -14.046875 28.4375 -18.171875 C 31.851562 -22.296875 35.796875 -27.285156 40.265625 -33.140625 C 51.421875 -47.804688 58.820312 -55.828125 62.46875 -57.203125 C 63.707031 -57.679688 64.945312 -57.921875 66.1875 -57.921875 C 67.5625 -57.921875 68.675781 -57.628906 69.53125 -57.046875 C 70.394531 -56.460938 70.828125 -55.789062 70.828125 -55.03125 C 70.828125 -53.863281 69.828125 -53.175781 67.828125 -52.96875 C 66.390625 -52.207031 64.617188 -50.894531 62.515625 -49.03125 C 60.421875 -47.175781 58.21875 -45.0625 55.90625 -42.6875 C 53.601562 -40.3125 51.453125 -37.972656 49.453125 -35.671875 C 47.460938 -33.367188 45.847656 -31.390625 44.609375 -29.734375 C 37.242188 -19.484375 29.878906 -11.289062 22.515625 -5.15625 L 21.890625 -4.640625 C 24.085938 -1.410156 26.734375 0.820312 29.828125 2.0625 C 32.929688 3.300781 36.378906 3.921875 40.171875 3.921875 C 46.429688 3.921875 52.398438 2.972656 58.078125 1.078125 C 63.753906 -0.804688 68.878906 -3.625 73.453125 -7.375 C 78.035156 -11.132812 81.804688 -15.734375 84.765625 -21.171875 C 88.003906 -27.085938 89.625 -32.726562 89.625 -38.09375 C 89.625 -41.75 88.832031 -45.207031 87.25 -48.46875 C 85.664062 -51.738281 83.546875 -54.546875 80.890625 -56.890625 C 78.242188 -59.234375 75.300781 -60.75 72.0625 -61.4375 C 68.28125 -62.257812 64.320312 -62.671875 60.1875 -62.671875 C 49.59375 -62.671875 39.820312 -60.226562 30.875 -55.34375 C 21.4375 -50.175781 16.71875 -44.394531 16.71875 -38 C 16.71875 -36.28125 17.238281 -34.800781 18.28125 -33.5625 C 19.101562 -32.59375 19.6875 -32.039062 20.03125 -31.90625 L 19.40625 -31.90625 C 17.476562 -32.25 15.828125 -33.210938 14.453125 -34.796875 C 13.078125 -36.378906 12.390625 -38.132812 12.390625 -40.0625 C 12.390625 -43.644531 13.503906 -46.929688 15.734375 -49.921875 C 17.972656 -52.910156 21.226562 -55.644531 25.5 -58.125 C 34.039062 -63.007812 44.125 -65.453125 55.75 -65.453125 C 58.363281 -65.453125 60.976562 -65.316406 63.59375 -65.046875 C 66.21875 -64.773438 68.800781 -64.363281 71.34375 -63.8125 C 75.820312 -62.84375 79.882812 -61.015625 83.53125 -58.328125 C 87.175781 -55.648438 90.097656 -52.382812 92.296875 -48.53125 C 94.503906 -44.675781 95.609375 -40.507812 95.609375 -36.03125 C 95.609375 -30.875 94.09375 -25.539062 91.0625 -20.03125 C 88.039062 -14.457031 84.132812 -9.789062 79.34375 -6.03125 C 74.5625 -2.28125 69.175781 0.570312 63.1875 2.53125 C 57.195312 4.488281 50.832031 5.640625 44.09375 5.984375 Z M 6.5 2.578125 C 9.457031 1.273438 13.039062 -1.441406 17.25 -5.578125 C 15.25 -8.878906 13.9375 -11.664062 13.3125 -13.9375 C 12.90625 -15.445312 12.597656 -17.753906 12.390625 -20.859375 C 7.640625 -14.046875 5.265625 -8.09375 5.265625 -3 C 5.265625 -0.863281 5.675781 0.992188 6.5 2.578125 Z M 6.5 2.578125 "/></g></g></g><g fill="#000000" fill-opacity="1"><g transform="translate(231.245002, 219.251134)"><g><path d="M 22.8125 -35.515625 C 21.644531 -35.515625 20.628906 -35.894531 19.765625 -36.65625 C 18.910156 -37.414062 18.484375 -38.273438 18.484375 -39.234375 C 18.484375 -41.160156 19.789062 -42.125 22.40625 -42.125 C 23.363281 -42.125 24.320312 -41.796875 25.28125 -41.140625 C 26.25 -40.492188 26.734375 -39.6875 26.734375 -38.71875 C 26.734375 -37.894531 26.285156 -37.15625 25.390625 -36.5 C 24.503906 -35.84375 23.644531 -35.515625 22.8125 -35.515625 Z M 3.71875 1.140625 C 2.207031 1.140625 0.953125 0.640625 -0.046875 -0.359375 C -1.046875 -1.359375 -1.546875 -3.128906 -1.546875 -5.671875 C -1.546875 -7.117188 -1.21875 -8.789062 -0.5625 -10.6875 C 0.0820312 -12.582031 0.90625 -14.492188 1.90625 -16.421875 C 2.90625 -18.347656 3.890625 -20.066406 4.859375 -21.578125 C 8.710938 -27.835938 11.878906 -31.003906 14.359375 -31.078125 C 14.972656 -31.078125 15.726562 -30.816406 16.625 -30.296875 C 17.519531 -29.785156 17.96875 -29.21875 17.96875 -28.59375 C 17.96875 -28.59375 15.351562 -25.222656 10.125 -18.484375 C 4.957031 -11.804688 2.375 -7.054688 2.375 -4.234375 C 2.375 -2.023438 3.234375 -0.921875 4.953125 -0.921875 C 6.054688 -0.921875 7.484375 -1.382812 9.234375 -2.3125 C 10.992188 -3.25 12.835938 -4.4375 14.765625 -5.875 C 16.691406 -7.320312 18.53125 -8.875 20.28125 -10.53125 C 22.039062 -12.1875 23.472656 -13.703125 24.578125 -15.078125 C 25.265625 -15.972656 25.863281 -16.59375 26.375 -16.9375 C 26.894531 -17.28125 27.222656 -17.453125 27.359375 -17.453125 C 27.640625 -17.453125 27.78125 -17.242188 27.78125 -16.828125 C 27.78125 -16.484375 27.382812 -15.796875 26.59375 -14.765625 C 25.800781 -13.734375 24.710938 -12.53125 23.328125 -11.15625 C 21.679688 -9.5 19.859375 -7.707031 17.859375 -5.78125 C 15.867188 -3.851562 13.703125 -2.21875 11.359375 -0.875 C 9.015625 0.46875 6.46875 1.140625 3.71875 1.140625 Z M 3.71875 1.140625 "/></g></g></g><g fill="#000000" fill-opacity="1"><g transform="translate(254.57773, 219.251134)"><g><path d="M 4.4375 0.203125 C 2.71875 0.203125 1.375 -0.601562 0.40625 -2.21875 C -0.550781 -3.832031 -1.03125 -5.398438 -1.03125 -6.921875 C -1.03125 -11.046875 1.960938 -16.828125 7.953125 -24.265625 C 14.003906 -31.765625 18.890625 -35.515625 22.609375 -35.515625 C 26.117188 -35.515625 27.875 -33.65625 27.875 -29.9375 C 27.875 -29.382812 27.820312 -28.800781 27.71875 -28.1875 C 27.613281 -27.570312 27.492188 -26.914062 27.359375 -26.21875 C 27.492188 -26.019531 27.835938 -25.921875 28.390625 -25.921875 C 30.253906 -25.921875 32.457031 -26.570312 35 -27.875 C 34.9375 -26.707031 32.21875 -25.019531 26.84375 -22.8125 C 27.601562 -20.539062 25.332031 -16.207031 20.03125 -9.8125 C 14.59375 -3.132812 9.945312 0.203125 6.09375 0.203125 Z M 6.296875 -2.890625 C 9.253906 -2.890625 13.039062 -5.609375 17.65625 -11.046875 C 22.125 -16.347656 24.359375 -20.171875 24.359375 -22.515625 C 23.265625 -23.128906 21.890625 -24.710938 20.234375 -27.265625 C 17.890625 -27.265625 14.519531 -24.441406 10.125 -18.796875 C 5.78125 -13.285156 3.675781 -9.050781 3.8125 -6.09375 C 3.882812 -3.957031 4.710938 -2.890625 6.296875 -2.890625 Z M 6.296875 -2.890625 "/></g></g></g><g fill="#000000" fill-opacity="1"><g transform="translate(283.588775, 219.251134)"><g><path d="M 26.328125 0.203125 C 24.472656 0.203125 23.164062 -0.328125 22.40625 -1.390625 C 21.644531 -2.460938 21.265625 -3.789062 21.265625 -5.375 C 21.265625 -9.363281 22.644531 -13.628906 25.40625 -18.171875 L 32 -28.90625 C 27.320312 -25.46875 22.675781 -21.164062 18.0625 -16 C 16.820312 -14.625 15.425781 -13.003906 13.875 -11.140625 C 12.332031 -9.285156 10.632812 -7.15625 8.78125 -4.75 C 6.300781 -1.507812 4.820312 0.109375 4.34375 0.109375 C 3.375 0.109375 2.578125 -0.320312 1.953125 -1.1875 C 1.335938 -2.050781 1.03125 -2.828125 1.03125 -3.515625 C 1.03125 -4.066406 1.203125 -5.082031 1.546875 -6.5625 C 1.890625 -8.039062 2.300781 -9.328125 2.78125 -10.421875 C 3.269531 -11.597656 3.769531 -12.753906 4.28125 -13.890625 C 4.800781 -15.023438 5.300781 -16.144531 5.78125 -17.25 L -0.40625 -10.734375 C -0.550781 -10.597656 -0.96875 -10.1875 -1.65625 -9.5 C -2.34375 -8.8125 -2.890625 -8.46875 -3.296875 -8.46875 C -3.640625 -8.46875 -3.8125 -8.707031 -3.8125 -9.1875 C -3.8125 -9.320312 -3.757812 -9.507812 -3.65625 -9.75 C -3.5625 -10 -3.34375 -10.296875 -3 -10.640625 C -1.96875 -11.671875 -0.898438 -12.769531 0.203125 -13.9375 C 1.304688 -15.101562 2.441406 -16.445312 3.609375 -17.96875 C 4.234375 -18.71875 5.164062 -19.867188 6.40625 -21.421875 C 7.644531 -22.972656 9.003906 -24.640625 10.484375 -26.421875 C 11.960938 -28.210938 13.351562 -29.867188 14.65625 -31.390625 C 15 -31.867188 15.378906 -32.191406 15.796875 -32.359375 C 16.210938 -32.535156 16.488281 -32.625 16.625 -32.625 C 18.476562 -32.625 19.40625 -31.898438 19.40625 -30.453125 C 19.40625 -30.046875 19.300781 -29.632812 19.09375 -29.21875 C 12.90625 -20.6875 9.191406 -14.179688 7.953125 -9.703125 C 15.929688 -17.691406 22.347656 -23.695312 27.203125 -27.71875 C 32.054688 -31.75 35.515625 -33.765625 37.578125 -33.765625 C 38.679688 -33.765625 39.523438 -33.59375 40.109375 -33.25 C 40.691406 -32.90625 40.984375 -32.25 40.984375 -31.28125 C 40.984375 -30.9375 40.953125 -30.660156 40.890625 -30.453125 C 40.679688 -29.972656 39.269531 -28.046875 36.65625 -24.671875 C 35.070312 -22.742188 33.675781 -20.988281 32.46875 -19.40625 C 31.269531 -17.820312 30.289062 -16.445312 29.53125 -15.28125 C 28.289062 -13.351562 27.359375 -11.546875 26.734375 -9.859375 C 26.117188 -8.171875 25.8125 -6.742188 25.8125 -5.578125 C 25.8125 -5.097656 25.878906 -4.507812 26.015625 -3.8125 C 26.148438 -3.125 26.566406 -2.78125 27.265625 -2.78125 C 28.835938 -2.78125 31.3125 -4.160156 34.6875 -6.921875 C 36.269531 -8.296875 37.75 -9.6875 39.125 -11.09375 C 40.507812 -12.507812 41.820312 -13.90625 43.0625 -15.28125 C 43.332031 -15.550781 43.773438 -16.082031 44.390625 -16.875 C 45.015625 -17.664062 45.394531 -18.0625 45.53125 -18.0625 C 45.8125 -18.0625 45.953125 -17.789062 45.953125 -17.25 C 45.953125 -16.96875 45.796875 -16.5 45.484375 -15.84375 C 45.171875 -15.195312 44.84375 -14.703125 44.5 -14.359375 C 43.738281 -13.460938 42.617188 -12.222656 41.140625 -10.640625 C 39.660156 -9.054688 38.007812 -7.4375 36.1875 -5.78125 C 34.363281 -4.125 32.59375 -2.710938 30.875 -1.546875 C 29.15625 -0.378906 27.640625 0.203125 26.328125 0.203125 Z M 26.328125 0.203125 "/></g></g></g><g clip-path="url(#2079cc2574)"><g clip-path="url(#0bb22fad5e)"><g clip-path="url(#d4605100ac)"><path fill="#ffffff" d="M 124.953125 187.683594 L 136.140625 198.871094 L 81.867188 253.148438 L 70.679688 241.960938 Z M 124.953125 187.683594 " fill-opacity="1" fill-rule="nonzero"/></g></g></g><g clip-path="url(#3d2028b3a4)"><g clip-path="url(#b40e9a855b)"><g clip-path="url(#08ec46b3e2)"><g clip-path="url(#361e1f3fef)"><path stroke-linecap="butt" transform="matrix(0.527582, 0.527582, -0.528387, 0.528387, 124.936871, 187.703205)" fill="none" stroke-linejoin="miter" d="M 0.000520327 -0.000671456 L 21.109493 -0.000671456 L 21.109493 102.30795 L 0.000520327 102.30795 L 0.000520327 -0.000671456 " stroke="#000000" stroke-width="8" stroke-opacity="1" stroke-miterlimit="4"/></g></g></g></g><g fill="#000000" fill-opacity="1"><g transform="translate(217.340805, 243.056821)"><g><path d="M 2.109375 0.078125 C 1.804688 0.078125 1.566406 -0.00390625 1.390625 -0.171875 C 1.222656 -0.335938 1.140625 -0.5625 1.140625 -0.84375 C 1.140625 -1.113281 1.222656 -1.332031 1.390625 -1.5 C 1.566406 -1.675781 1.804688 -1.765625 2.109375 -1.765625 C 2.410156 -1.765625 2.644531 -1.679688 2.8125 -1.515625 C 2.988281 -1.347656 3.078125 -1.128906 3.078125 -0.859375 C 3.078125 -0.578125 2.988281 -0.347656 2.8125 -0.171875 C 2.632812 -0.00390625 2.398438 0.078125 2.109375 0.078125 Z M 2.109375 0.078125 "/></g></g></g><g fill="#000000" fill-opacity="1"><g transform="translate(221.55072, 243.056821)"><g><path d="M 5.421875 -11.421875 C 6.578125 -11.421875 7.570312 -11.210938 8.40625 -10.796875 C 9.238281 -10.390625 9.878906 -9.757812 10.328125 -8.90625 C 10.773438 -8.0625 11 -7 11 -5.71875 C 11 -4.4375 10.773438 -3.367188 10.328125 -2.515625 C 9.878906 -1.671875 9.238281 -1.039062 8.40625 -0.625 C 7.570312 -0.207031 6.578125 0 5.421875 0 L 1.734375 0 L 1.734375 -11.421875 Z M 5.296875 -1.140625 C 6.242188 -1.140625 7.03125 -1.285156 7.65625 -1.578125 C 8.28125 -1.878906 8.753906 -2.363281 9.078125 -3.03125 C 9.398438 -3.707031 9.5625 -4.601562 9.5625 -5.71875 C 9.5625 -6.832031 9.398438 -7.722656 9.078125 -8.390625 C 8.753906 -9.054688 8.28125 -9.535156 7.65625 -9.828125 C 7.03125 -10.128906 6.242188 -10.28125 5.296875 -10.28125 L 3.078125 -10.28125 L 3.078125 -1.140625 Z M 5.296875 -1.140625 "/></g></g></g><g fill="#000000" fill-opacity="1"><g transform="translate(233.688381, 243.056821)"><g><path d="M 3.078125 -5.390625 L 3.078125 -1.109375 L 8.890625 -1.109375 L 8.890625 0 L 1.734375 0 L 1.734375 -11.421875 L 8.765625 -11.421875 L 8.765625 -10.3125 L 3.078125 -10.3125 L 3.078125 -6.5 L 8.09375 -6.5 L 8.09375 -5.390625 Z M 3.078125 -5.390625 "/></g></g></g><g fill="#000000" fill-opacity="1"><g transform="translate(243.334468, 243.056821)"><g><path d="M 6.21875 0 L 4.453125 0 L 0.5 -11.421875 L 1.921875 -11.421875 L 5.28125 -1.6875 L 5.46875 -1.6875 L 8.78125 -11.421875 L 10.1875 -11.421875 Z M 6.21875 0 "/></g></g></g><path stroke-linecap="butt" transform="matrix(0.746655, 0.00408385, -0.00410209, 0.749989, 148.779165, 236.494336)" fill="none" stroke-linejoin="miter" d="M -0.00216407 1.002371 L 91.415902 0.999378 " stroke="#000000" stroke-width="2" stroke-opacity="1" stroke-miterlimit="4"/><path stroke-linecap="butt" transform="matrix(0.746655, 0.00408385, -0.00410209, 0.749989, 258.34991, 236.494336)" fill="none" stroke-linejoin="miter" d="M 0.00248846 1.002346 L 91.415323 0.999382 " stroke="#000000" stroke-width="2" stroke-opacity="1" stroke-miterlimit="4"/><g clip-path="url(#75f2a81123)"><g clip-path="url(#98b272d7c4)"><g clip-path="url(#32d589bdf8)"><path fill="#ffffff" d="M 108.824219 184.921875 L 120.011719 196.109375 L 67.390625 248.726562 L 56.207031 237.539062 Z M 108.824219 184.921875 " fill-opacity="1" fill-rule="nonzero"/></g></g></g><g clip-path="url(#eb63908405)"><g clip-path="url(#321ed26d7b)"><g clip-path="url(#06a1ac2b21)"><g clip-path="url(#1d2f0ebe35)"><path stroke-linecap="butt" transform="matrix(0.527582, 0.527582, -0.530246, 0.530246, 108.809052, 184.935809)" fill="none" stroke-linejoin="miter" d="M 0.00116886 0.00202675 L 21.110142 0.00202675 L 21.110142 98.961034 L 0.00116886 98.961034 L 0.00116886 0.00202675 " stroke="#000000" stroke-width="8" stroke-opacity="1" stroke-miterlimit="4"/></g></g></g></g><g clip-path="url(#084567644a)"><g clip-path="url(#446c99b657)"><g clip-path="url(#9f3455ace9)"><path fill="#ffffff" d="M 106.847656 168.230469 L 118.035156 179.417969 L 65.832031 231.621094 L 54.644531 220.433594 Z M 106.847656 168.230469 " fill-opacity="1" fill-rule="nonzero"/></g></g></g><g clip-path="url(#4d779a77f2)"><g clip-path="url(#be23dcc902)"><g clip-path="url(#d037928e77)"><g clip-path="url(#6745c02c8d)"><path stroke-linecap="butt" transform="matrix(0.527582, 0.527582, -0.532262, 0.532262, 106.835388, 168.243695)" fill="none" stroke-linejoin="miter" d="M -0.000907381 -0.00193201 L 21.108065 -0.00193201 L 21.108065 98.589641 L -0.000907381 98.589641 L -0.000907381 -0.00193201 " stroke="#000000" stroke-width="8" stroke-opacity="1" stroke-miterlimit="4"/></g></g></g></g><g clip-path="url(#46d7a06c81)"><g clip-path="url(#885bcdafb2)"><g clip-path="url(#10f947b5ad)"><path fill="#ffffff" d="M 106.847656 149.75 L 118.035156 160.9375 L 65.832031 213.140625 L 54.644531 201.953125 Z M 106.847656 149.75 " fill-opacity="1" fill-rule="nonzero"/></g></g></g><g clip-path="url(#8d75980800)"><g clip-path="url(#37126ea324)"><g clip-path="url(#28d268d668)"><g clip-path="url(#f8bbd8e504)"><path stroke-linecap="butt" transform="matrix(0.527582, 0.527582, -0.532262, 0.532262, 106.835388, 149.763403)" fill="none" stroke-linejoin="miter" d="M -0.00107528 -0.00209843 L 21.107897 -0.00209843 L 21.107897 98.589475 L -0.00107528 98.589475 L -0.00107528 -0.00209843 " stroke="#000000" stroke-width="8" stroke-opacity="1" stroke-miterlimit="4"/></g></g></g></g><g clip-path="url(#41387cb6b1)"><g clip-path="url(#13384c8100)"><g clip-path="url(#6928761781)"><path fill="#ffffff" d="M 89.421875 147.777344 L 100.609375 158.964844 L 48.820312 210.753906 L 37.632812 199.566406 Z M 89.421875 147.777344 " fill-opacity="1" fill-rule="nonzero"/></g></g></g><g clip-path="url(#0c8ead9f2c)"><g clip-path="url(#a392530303)"><g clip-path="url(#00cf8ff7d9)"><g clip-path="url(#f35f6e15db)"><path stroke-linecap="butt" transform="matrix(0.527582, 0.527582, -0.530838, 0.530838, 89.4053, 147.793277)" fill="none" stroke-linejoin="miter" d="M 0.000608271 -0.00118465 L 21.109581 -0.00118465 L 21.109581 97.846769 L 0.000608271 97.846769 L 0.000608271 -0.00118465 " stroke="#000000" stroke-width="8" stroke-opacity="1" stroke-miterlimit="4"/></g></g></g></g></svg>